Results
version=1
nRows=29
nColumns=24
inDegrees=yes
endheader
time	pelvis_tilt	pelvis_list	pelvis_rotation	pelvis_tx	pelvis_ty	pelvis_tz	hip_flexion_r	hip_adduction_r	hip_rotation_r	knee_angle_r	ankle_angle_r	subtalar_angle_r	mtp_angle_r	hip_flexion_l	hip_adduction_l	hip_rotation_l	knee_angle_l	ankle_angle_l	subtalar_angle_l	mtp_angle_l	lumbar_extension	lumbar_bending	lumbar_rotation
      0.78333333	     -0.09540217	     -1.36966556	     -2.37827180	     -0.49547333	      1.07959291	      0.36486183	     11.00882204	      5.52623300	     -5.23331897	    -14.61703441	     -0.22210710	     -4.68959460	      2.95671429	     14.57905000	     -0.65579884	     -1.59763340	    -66.00352577	     -1.27562301	    -10.57682232	     17.86528259	      3.43458965	      6.40243240	     -0.13117628
      0.78750000	     -0.06672619	     -1.30221529	     -2.35726201	     -0.49053092	      1.08027469	      0.36496885	     10.64764527	      5.46643184	     -5.15342069	    -14.54639389	     -0.09231616	     -4.75817653	      2.94935601	     15.13883408	     -0.54757698	     -1.31732814	    -65.94227888	     -0.80336638	    -10.86847339	     17.77199590	      3.37845762	      6.30459538	     -0.07731957
      0.79166667	     -0.05673182	     -1.23869886	     -2.35740434	     -0.48547017	      1.08094497	      0.36508610	     10.29623400	      5.41203229	     -5.09507740	    -14.44945339	      0.05137613	     -4.84084139	      2.93936156	     15.68865688	     -0.44509051	     -1.06884188	    -65.80328054	     -0.33157853	    -11.19197838	     17.64844149	      3.32377632	      6.23268384	     -0.01594565
      0.79583333	     -0.02225501	     -1.17299108	     -2.35277397	     -0.48060068	      1.08158871	      0.36515357	      9.92822441	      5.35100594	     -4.96445631	    -14.37177956	      0.15338736	     -4.88462886	      2.93232892	     16.21947903	     -0.32807910	     -0.79173459	    -65.63380524	     -0.00652810	    -11.44891734	     17.55675971	      3.26701081	      6.14447932	      0.04013398
      0.80000000	     -0.00037043	     -1.12353571	     -2.36181262	     -0.47556145	      1.08223062	      0.36533987	      9.55668841	      5.32188410	     -4.88074638	    -14.25948404	      0.30132502	     -4.96484276	      2.92238898	     16.72841597	     -0.24060476	     -0.54042802	    -65.38307835	      0.40672871	    -11.82292826	     17.43315648	      3.20187381	      6.06552564	      0.11266611
      0.80416667	      0.03192757	     -1.07059832	     -2.37605185	     -0.47062604	      1.08285359	      0.36543212	      9.18048034	      5.27914209	     -4.75853598	    -14.15528571	      0.42528057	     -5.03013936	      2.91261479	     17.22242659	     -0.13542727	     -0.28226987	    -65.08399643	      0.72133215	    -12.17215809	     17.31246592	      3.13256593	      5.99628832	      0.18409802
      0.80833333	      0.06963607	     -1.02369729	     -2.40279540	     -0.46566307	      1.08346712	      0.36556110	      8.79533987	      5.24540267	     -4.64426314	    -14.05576587	      0.56510823	     -5.10873295	      2.90004607	     17.68968913	     -0.03963443	     -0.03133472	    -64.73127905	      1.03221109	    -12.60465694	     17.16059410	      3.05374257	      5.93184916	      0.27181961
      0.81250000	      0.10438275	     -0.98047355	     -2.42965313	     -0.46074119	      1.08404029	      0.36567994	      8.41009454	      5.21687070	     -4.50485553	    -13.93640709	      0.68747939	     -5.17098154	      2.88800353	     18.14952512	      0.05643369	      0.22675046	    -64.32233104	      1.27223652	    -13.02110669	     17.01630955	      2.98222079	      5.86992460	      0.35750769
      0.81666667	      0.15218492	     -0.91332667	     -2.52125155	     -0.45581997	      1.08463065	      0.36572704	      8.03073870	      5.14928902	     -4.40878800	    -13.86621747	      0.84115830	     -5.29850398	      2.85916754	     18.56502230	      0.17959365	      0.41565000	    -63.83548552	      1.44131585	    -13.70628931	     16.69606437	      2.84108438	      5.86833732	      0.50420083
      0.82083333	      0.21604063	     -0.87629940	     -2.56393624	     -0.45086678	      1.08521207	      0.36584848	      7.60409721	      5.12449149	     -4.26227807	    -13.73557069	      0.96645003	     -5.35661686	      2.83004762	     18.95018766	      0.27021629	      0.66148952	    -63.30502206	      1.58760834	    -14.28386650	     16.37230032	      2.74698687	      5.79868052	      0.64695736
      0.82500000	      0.26235755	     -0.85013085	     -2.61478520	     -0.44592447	      1.08574232	      0.36595780	      7.19544138	      5.11112806	     -4.11407346	    -13.60197083	      1.09131432	     -5.42368568	      2.80037080	     19.33927795	      0.34880711	      0.90464988	    -62.72733830	      1.71723495	    -14.85470430	     16.05331573	      2.64511433	      5.77152471	      0.76510623
      0.82916667	      0.24635035	     -0.82911347	     -2.65180815	     -0.44103330	      1.08612474	      0.36601643	      6.85798254	      5.10056975	     -3.95821503	    -13.47009215	      1.13244959	     -5.41770141	      2.79540034	     19.78928430	      0.42805039	      1.19161786	    -62.11135620	      1.80551555	    -15.01453645	     15.99386761	      2.58016428	      5.75458297	      0.79132261
      0.83333333	      0.30800181	     -0.80116058	     -2.73476389	     -0.43604300	      1.08663907	      0.36615609	      6.42901317	      5.08470109	     -3.83880923	    -13.33677874	      1.34106806	     -5.56591510	      2.76609074	     20.11298479	      0.50089490	      1.38127774	    -61.41708704	      1.99385393	    -15.97092910	     15.68950607	      2.49712477	      5.70119710	      0.92425807
      0.83750000	      0.38642720	     -0.80174645	     -2.78747237	     -0.43119918	      1.08711922	      0.36627757	      5.97348993	      5.09925352	     -3.63962938	    -13.16335295	      1.39488570	     -5.57905875	      2.69360073	     20.42170701	      0.55014857	      1.62220318	    -60.66807192	      1.64543902	    -16.95100517	     14.95688517	      2.26837747	      5.69004281	      1.16535464
      0.84166667	      0.39977538	     -0.80434344	     -2.81902607	     -0.42616826	      1.08749133	      0.36637552	      5.57020722	      5.11587399	     -3.50775059	    -12.97614203	      1.50107799	     -5.60607035	      2.68082327	     20.76390035	      0.60091456	      1.90379339	    -59.88563949	      1.88807515	    -17.24398386	     14.82424905	      2.34196607	      5.68493631	      1.21086070
      0.84583333	      0.43835899	     -0.79854187	     -2.91158731	     -0.42133216	      1.08784280	      0.36646048	      5.16878678	      5.11677715	     -3.33118549	    -12.83180827	      1.63143511	     -5.70912661	      2.61229844	     21.07230302	      0.65005050	      2.10689687	    -59.03868079	      1.70071029	    -18.30826432	     14.15431488	      2.11545342	      5.67697401	      1.37067231
      0.85000000	      0.43474586	     -0.78275880	     -2.98298035	     -0.41627048	      1.08814293	      0.36647837	      4.79183494	      5.10009886	     -3.25722791	    -12.66633710	      1.75664125	     -5.78531227	      2.57882057	     21.37975783	      0.71894780	      2.34553291	    -58.13313699	      1.91439453	    -18.82712976	     13.83229043	      2.15008816	      5.67137444	      1.44804517
      0.85416667	      0.46474927	     -0.79020733	     -3.05273566	     -0.41129430	      1.08844797	      0.36653959	      4.36947861	      5.11318386	     -3.09812411	    -12.47306918	      1.87126259	     -5.87291406	      2.53419513	     21.64002627	      0.75694193	      2.58156877	    -57.17327515	      1.83930280	    -19.62554535	     13.39893409	      2.10535489	      5.70583177	      1.54607608
      0.85833333	      0.50536171	     -0.81451919	     -3.10534258	     -0.40639451	      1.08871122	      0.36661364	      3.93448845	      5.14680316	     -2.93429757	    -12.26434156	      1.94011899	     -5.91177610	      2.46293581	     21.88058259	      0.77633488	      2.83067024	    -56.17116778	      1.59522835	    -20.53097683	     12.70647352	      1.94700449	      5.68821196	      1.69682882
      0.86250000	      0.44024970	     -0.84485699	     -3.15509235	     -0.40143807	      1.08877182	      0.36656609	      3.61682852	      5.17900246	     -2.81298764	    -12.08056674	      1.98272719	     -5.90607468	      2.45669569	     22.21055986	      0.79525287	      3.13173994	    -55.14178408	      1.68818753	    -20.65074338	     12.63965832	      1.94575031	      5.75854668	      1.70523178
      0.86666667	      0.50926618	     -0.85183341	     -3.29513692	     -0.39644917	      1.08906084	      0.36676777	      3.13927143	      5.19732144	     -2.55537413	    -11.85140127	      2.04853928	     -6.02224751	      0.71960950	     22.34742744	      0.79690175	      3.26151598	    -54.03144764	      1.80929542	    -21.38505841	     -3.52073133	      1.83917794	      5.79620429	      2.29650096
      0.87083333	      0.47271152	     -0.90707262	     -3.28256862	     -0.39139605	      1.08909751	      0.36672445	      2.75808336	      5.26204380	     -2.47602942	    -11.60695283	      2.17594309	     -6.04821004	      0.71404158	     22.60264326	      0.79704162	      3.59292766	    -52.90386847	      1.87887944	    -21.68581469	     -3.53620552	      1.93169357	      5.87767566	      2.25326086
      0.87500000	      0.46834233	     -0.92912438	     -3.34937458	     -0.38639972	      1.08916588	      0.36662751	      2.36905679	      5.27456456	     -2.41036092	    -11.41304963	      2.32895438	     -6.18993167	      0.69108911	     22.78710504	      0.82366381	      3.84346962	    -51.67972671	      1.61030830	    -22.72916613	     -3.61316475	      1.84067304	      5.86824990	      2.16676554
      0.87916667	      0.35296819	     -0.99317679	     -3.38578674	     -0.38137577	      1.08900496	      0.36660548	      2.08372230	      5.35212404	     -2.30852490	    -11.17601471	      2.35524640	     -6.17151380	      0.68921526	     23.08365086	      0.78963892	      4.12497793	    -50.46151182	      1.64677422	    -22.82014537	     -3.62356124	      1.80988011	      5.96239391	      2.15683481
      0.88333333	      0.41699166	     -1.02554836	     -3.44515946	     -0.37631563	      1.08912457	      0.36656319	      1.58882893	      5.37797972	     -2.16101618	    -10.92692011	      2.47234559	     -6.37106692	      0.66337502	     23.13415432	      0.79617524	      4.38994854	    -49.11126587	      1.22843067	    -23.94335798	     -3.74497186	      1.86122482	      5.96676106	      2.21766717
      0.88750000	      0.29091411	     -1.11071294	     -3.47554620	     -0.37132698	      1.08884848	      0.36650125	      1.31426815	      5.47674165	     -2.05874108	    -10.68769551	      2.49767479	     -6.35085876	      0.66141917	     23.40367316	      0.73805182	      4.68727741	    -47.80794607	      1.25884074	    -24.01921347	     -3.75937409	      1.82602267	      6.08479617	      2.21077513
      0.89166667	      0.36318189	     -1.17122859	     -3.50652819	     -0.36624779	      1.08889464	      0.36642292	      0.79764457	      5.53385133	     -1.93029921	    -10.41708597	      2.60639950	     -6.57490067	      0.63334660	     23.40361337	      0.71795007	      4.98501642	    -46.37106226	      0.76460223	    -25.00284891	     -3.91955903	      1.86037576	      6.14483994	      2.31408305
      0.89583333	      0.22882477	     -1.26618480	     -3.53634899	     -0.36123274	      1.08853354	      0.36632186	      0.52415493	      5.63967439	     -1.82647671	    -10.17057511	      2.63058151	     -6.55672918	      0.63103602	     23.63477301	      0.64579867	      5.29250682	    -44.97589169	      0.79399349	    -25.06681307	     -3.93885634	      1.83664211	      6.27718344	      2.30728248
      0.90000000	      0.27673157	     -1.34244668	     -3.54908379	     -0.35611778	      1.08845583	      0.36627586	      0.02358134	      5.72105580	     -1.71350180	     -9.87553799	      2.72620591	     -6.79635547	      0.60229654	     23.62111847	      0.59912470	      5.59004302	    -43.45984758	      0.27742612	    -25.86051549	     -4.12987356	      1.88772616	      6.34550466	      2.40996894
